<?xml version="1.0" standalone="no"?>
<!DOCTYPE svg PUBLIC "-//W3C//DTD SVG 20010904//EN"
 "http://www.w3.org/TR/2001/REC-SVG-20010904/DTD/svg10.dtd">
<svg version="1.0" xmlns="http://www.w3.org/2000/svg"
 width="888.000000pt" height="152.000000pt" viewBox="0 0 888.000000 152.000000"
 preserveAspectRatio="xMidYMid meet">

<g transform="translate(0.000000,152.000000) scale(0.100000,-0.100000)"
fill="#000000" stroke="none">
<path d="M0 760 l0 -760 4435 0 4435 0 0 760 0 760 -4435 0 -4435 0 0 -760z
m8255 666 c324 -104 529 -434 473 -761 -39 -231 -176 -415 -383 -515 -463
-223 -998 110 -998 620 0 188 66 347 200 483 98 99 211 162 348 193 93 21 261
12 360 -20z m-7660 -496 c34 -146 63 -271 66 -278 2 -7 33 113 69 267 l64 281
108 0 108 0 0 -360 0 -360 -70 0 -70 0 -1 293 -1 292 -66 -293 -67 -293 -74 3
-74 3 -62 276 c-34 152 -65 282 -68 290 -3 8 -6 -118 -6 -278 l-1 -293 -70 0
-70 0 0 353 c0 195 3 357 7 361 4 3 54 5 112 4 l104 -3 62 -265z m683 208 l-3
-63 -67 -3 -68 -3 0 66 0 65 70 0 71 0 -3 -62z m826 46 c3 -9 6 -66 6 -127 0
-101 1 -109 15 -91 36 53 153 70 231 35 25 -12 50 -33 65 -57 23 -37 24 -48
27 -251 l4 -213 -76 0 -76 0 0 190 c0 189 0 191 -25 215 -41 42 -111 29 -145
-27 -18 -30 -20 -51 -20 -205 l0 -173 -70 0 -70 0 0 360 0 360 64 0 c49 0 65
-4 70 -16z m1736 -344 l0 -360 -70 0 -70 0 0 360 0 360 70 0 70 0 0 -360z
m851 337 c76 -34 119 -111 119 -212 0 -77 -18 -126 -60 -166 -48 -46 -100 -59
-234 -59 l-106 0 0 -130 0 -130 -75 0 -75 0 0 361 0 361 198 -4 c155 -3 205
-8 233 -21z m2285 -177 c47 -20 83 -65 91 -115 l6 -35 -71 0 c-65 0 -70 2 -76
23 -15 63 -166 60 -166 -3 0 -25 16 -33 135 -64 109 -29 138 -45 173 -97 48
-69 10 -178 -78 -222 -66 -32 -215 -32 -282 1 -57 28 -88 68 -95 122 l-6 40
72 0 c62 0 71 -2 71 -18 0 -33 37 -55 98 -60 46 -3 62 0 82 16 21 17 23 23 13
44 -9 21 -28 29 -115 52 -56 15 -122 38 -144 52 -79 45 -85 148 -15 228 55 62
205 80 307 36z m-5208 -6 c58 -29 91 -73 99 -134 l6 -40 -72 0 c-55 0 -71 3
-71 14 0 8 -10 27 -23 42 -31 36 -96 38 -132 4 -61 -58 -60 -231 2 -280 52
-41 133 -17 149 45 6 24 10 25 75 25 63 0 69 -2 69 -20 0 -61 -82 -154 -154
-175 -149 -44 -279 21 -317 159 -16 57 -12 171 7 229 20 60 87 132 136 146 18
5 65 10 104 10 56 1 80 -4 122 -25z m1156 1 c77 -39 81 -51 84 -275 3 -157 6
-201 18 -211 27 -23 13 -29 -66 -29 -79 0 -80 0 -80 25 0 31 -2 31 -48 0 -87
-57 -196 -52 -252 11 -35 41 -44 70 -38 129 11 91 71 135 212 154 108 15 141
46 96 91 -13 13 -33 20 -61 20 -50 0 -77 -14 -89 -46 -9 -22 -15 -24 -75 -24
-74 0 -78 6 -46 75 37 80 94 106 221 102 61 -1 96 -8 124 -22z m543 0 c80 -40
133 -138 133 -247 l0 -38 -180 0 -180 0 0 -25 c0 -64 47 -105 120 -105 34 0
48 6 70 30 26 27 34 30 94 30 78 0 81 -6 34 -76 -46 -68 -108 -98 -202 -99
-119 0 -207 56 -246 160 -7 17 -12 69 -12 116 -1 180 86 278 248 279 55 0 81
-5 121 -25z m1797 0 c77 -39 81 -51 84 -275 3 -158 6 -201 18 -210 28 -24 13
-31 -63 -28 -72 3 -78 5 -81 26 -2 12 -5 22 -7 22 -2 0 -27 -14 -54 -32 -41
-25 -63 -31 -109 -32 -100 -1 -162 53 -169 146 -8 107 60 167 211 188 82 11
116 29 116 61 0 26 -39 49 -83 49 -48 0 -75 -14 -87 -46 -9 -22 -15 -24 -75
-24 -74 0 -78 6 -46 75 37 80 94 106 221 102 61 -1 96 -8 124 -22z m613 -1
c15 -11 38 -40 51 -64 21 -42 22 -56 22 -247 l0 -203 -70 0 -70 0 -1 168 c0
102 -5 181 -12 202 -22 65 -107 78 -158 24 -23 -25 -24 -31 -27 -210 l-3 -184
-70 0 -69 0 0 265 0 265 65 0 65 0 0 -37 0 -37 33 31 c51 48 67 54 144 51 53
-3 79 -9 100 -24z m528 3 c79 -37 135 -137 135 -244 l0 -43 -180 0 -180 0 0
-25 c0 -64 47 -105 120 -105 31 0 47 7 72 30 28 27 37 30 96 30 l64 0 -7 -27
c-10 -43 -57 -95 -110 -123 -64 -32 -169 -34 -235 -4 -50 23 -94 64 -116 106
-36 70 -33 231 5 307 22 43 70 87 116 107 51 22 162 17 220 -9z m-5125 -252
l0 -265 -70 0 -70 0 0 265 0 265 70 0 70 0 0 -265z"/>
<path d="M7923 1315 c-174 -38 -314 -150 -392 -314 -41 -88 -54 -159 -48 -266
14 -254 191 -457 448 -511 283 -61 581 122 654 401 18 71 20 209 3 273 l-13
47 -5 -82 c-10 -141 -53 -175 -230 -183 l-115 -5 -3 -112 -3 -113 -69 0 -70 0
-2 248 -3 247 -55 -245 -55 -245 -68 -3 c-37 -2 -67 1 -67 5 -1 19 -109 485
-114 490 -3 4 -6 -107 -6 -245 l0 -252 -60 0 -60 0 0 315 0 315 98 0 97 0 55
-239 c30 -132 58 -237 61 -233 4 4 31 112 60 240 l53 233 222 -3 222 -3 47
-33 47 -33 -24 43 c-12 23 -53 72 -89 109 -134 136 -331 194 -516 154z"/>
<path d="M8220 880 l0 -90 85 0 c78 0 88 2 110 25 19 18 25 35 25 65 0 30 -6
47 -25 65 -22 23 -32 25 -110 25 l-85 0 0 -90z"/>
<path d="M4410 965 l0 -105 73 0 c132 0 177 28 177 109 0 83 -28 101 -160 101
l-90 0 0 -105z"/>
<path d="M2783 711 c-75 -19 -103 -41 -103 -79 0 -85 134 -85 177 -1 17 32 17
99 1 98 -7 -1 -41 -9 -75 -18z"/>
<path d="M3303 900 c-23 -9 -63 -65 -63 -87 0 -10 28 -13 105 -13 116 0 122 4
88 60 -26 45 -78 61 -130 40z"/>
<path d="M5123 711 c-71 -19 -103 -43 -103 -81 0 -37 32 -64 75 -62 75 3 115
48 115 128 0 38 1 38 -87 15z"/>
<path d="M6243 900 c-23 -10 -47 -41 -58 -77 -6 -23 -6 -23 99 -23 115 0 118
2 94 55 -21 46 -82 66 -135 45z"/>
</g>
</svg>
