<?xml version="1.0" standalone="no"?>
<!DOCTYPE svg PUBLIC "-//W3C//DTD SVG 20010904//EN"
 "http://www.w3.org/TR/2001/REC-SVG-20010904/DTD/svg10.dtd">
<svg version="1.0" xmlns="http://www.w3.org/2000/svg"
 width="888.000000pt" height="152.000000pt" viewBox="0 0 888.000000 152.000000"
 preserveAspectRatio="xMidYMid meet">

<g transform="translate(0.000000,152.000000) scale(0.100000,-0.100000)"
fill="#000000" stroke="none">
<path d="M7905 1446 c-137 -31 -250 -94 -348 -193 -134 -136 -200 -295 -200
-483 0 -510 535 -843 998 -620 207 100 344 284 383 515 36 212 -38 434 -197
593 -129 129 -277 191 -466 198 -71 2 -131 -1 -170 -10z m260 -131 c148 -31
308 -144 373 -263 l24 -43 -47 33 -47 33 -222 3 -222 3 -53 -233 c-29 -128
-56 -236 -60 -240 -3 -4 -31 101 -61 233 l-55 239 -97 0 -98 0 0 -315 0 -315
60 0 60 0 0 252 c0 138 3 249 6 245 5 -5 113 -471 114 -490 0 -4 30 -7 67 -5
l68 3 55 245 55 245 3 -247 2 -248 70 0 69 0 3 113 3 112 115 5 c177 8 220 42
230 183 l5 82 13 -47 c17 -64 15 -202 -3 -273 -73 -279 -371 -462 -654 -401
-257 54 -434 257 -448 511 -6 107 7 178 48 266 78 164 218 276 392 314 82 18
147 18 232 0z m260 -370 c19 -18 25 -35 25 -65 0 -30 -6 -47 -25 -65 -22 -23
-32 -25 -110 -25 l-85 0 0 90 0 90 85 0 c78 0 88 -2 110 -25z"/>
<path d="M327 1194 c-4 -4 -7 -166 -7 -361 l0 -353 70 0 70 0 1 293 c0 160 3
286 6 278 3 -8 34 -138 68 -290 l62 -276 74 -3 74 -3 67 293 66 293 1 -292 1
-293 70 0 70 0 0 360 0 360 -108 0 -108 0 -64 -281 c-36 -154 -67 -274 -69
-267 -3 7 -32 132 -66 278 l-62 265 -104 3 c-58 1 -108 -1 -112 -4z"/>
<path d="M1150 1135 l0 -66 68 3 67 3 3 63 3 62 -71 0 -70 0 0 -65z"/>
<path d="M1980 840 l0 -360 70 0 70 0 0 173 c0 154 2 175 20 205 34 56 104 69
145 27 25 -24 25 -26 25 -215 l0 -190 76 0 76 0 -4 213 c-3 203 -4 214 -27
251 -15 24 -40 45 -65 57 -78 35 -195 18 -231 -35 -14 -18 -15 -10 -15 91 0
61 -3 118 -6 127 -5 12 -21 16 -70 16 l-64 0 0 -360z"/>
<path d="M3710 840 l0 -360 70 0 70 0 0 360 0 360 -70 0 -70 0 0 -360z"/>
<path d="M4270 841 l0 -361 75 0 75 0 0 130 0 130 106 0 c134 0 186 13 234 59
79 75 83 242 8 327 -54 61 -80 67 -300 72 l-198 4 0 -361z m359 214 c34 -17
41 -33 41 -86 0 -81 -45 -109 -177 -109 l-73 0 0 105 0 105 90 0 c60 0 101 -5
119 -15z"/>
<path d="M6793 1020 c-124 -25 -189 -123 -152 -229 15 -43 71 -73 197 -107 87
-23 106 -31 115 -52 10 -21 8 -27 -13 -44 -20 -16 -36 -19 -82 -16 -61 5 -98
27 -98 60 0 16 -9 18 -71 18 l-72 0 6 -40 c7 -54 38 -94 95 -122 67 -33 216
-33 282 -1 88 44 126 153 78 222 -35 52 -64 68 -173 97 -119 31 -135 39 -135
64 0 63 151 66 166 3 6 -21 11 -23 76 -23 l71 0 -6 35 c-8 50 -44 95 -91 115
-51 22 -138 31 -193 20z"/>
<path d="M1552 1009 c-49 -14 -116 -86 -136 -146 -19 -58 -23 -172 -7 -229 38
-138 168 -203 317 -159 72 21 154 114 154 175 0 18 -6 20 -69 20 -65 0 -69 -1
-75 -25 -16 -62 -97 -86 -149 -45 -62 49 -63 222 -2 280 36 34 101 32 132 -4
13 -15 23 -34 23 -42 0 -11 16 -14 71 -14 l72 0 -6 40 c-13 100 -98 161 -221
159 -39 0 -86 -5 -104 -10z"/>
<path d="M2687 1006 c-50 -18 -76 -42 -98 -91 -32 -69 -28 -75 46 -75 60 0 66
2 75 24 12 32 39 46 89 46 28 0 48 -7 61 -20 45 -45 12 -76 -96 -91 -141 -19
-201 -63 -212 -154 -6 -59 3 -88 38 -129 56 -63 165 -68 252 -11 46 31 48 31
48 0 0 -25 1 -25 80 -25 79 0 93 6 66 29 -12 10 -15 54 -18 211 -3 224 -7 236
-84 275 -50 25 -191 32 -247 11z m193 -313 c0 -21 -6 -49 -13 -62 -43 -84
-177 -84 -177 1 0 38 28 60 103 79 89 23 87 24 87 -18z"/>
<path d="M3245 1001 c-92 -42 -137 -129 -137 -260 0 -47 5 -99 12 -116 39
-104 127 -160 246 -160 94 1 156 31 202 99 47 70 44 76 -34 76 -60 0 -68 -3
-94 -30 -22 -24 -36 -30 -70 -30 -73 0 -120 41 -120 105 l0 25 180 0 180 0 0
38 c0 109 -53 207 -133 247 -64 32 -170 35 -232 6z m158 -102 c26 -12 57 -57
57 -83 0 -14 -16 -16 -105 -16 -116 0 -119 2 -85 58 29 48 82 64 133 41z"/>
<path d="M5027 1006 c-50 -18 -76 -42 -98 -91 -32 -69 -28 -75 46 -75 60 0 66
2 75 24 12 32 39 46 87 46 44 0 83 -23 83 -49 0 -32 -34 -50 -116 -61 -151
-21 -219 -81 -211 -188 7 -93 69 -147 169 -146 46 1 68 7 109 32 27 18 52 32
54 32 2 0 5 -10 7 -22 3 -21 9 -23 81 -26 76 -3 91 4 63 28 -12 9 -15 52 -18
210 -3 224 -7 236 -84 275 -50 25 -191 32 -247 11z m193 -310 c0 -80 -40 -125
-115 -128 -66 -2 -100 66 -54 108 17 16 113 48 157 53 7 0 12 -12 12 -33z"/>
<path d="M5695 1009 c-11 -6 -35 -25 -52 -42 l-33 -31 0 37 0 37 -65 0 -65 0
0 -265 0 -265 69 0 70 0 3 184 c3 179 4 185 27 210 51 54 136 41 158 -24 7
-21 12 -100 12 -202 l1 -168 70 0 70 0 0 203 c0 191 -1 205 -22 247 -34 66
-66 84 -151 88 -42 1 -80 -2 -92 -9z"/>
<path d="M6195 1006 c-46 -20 -94 -64 -116 -107 -38 -76 -41 -237 -5 -307 77
-149 322 -173 427 -42 15 19 31 47 34 63 l7 27 -64 0 c-59 0 -68 -3 -96 -30
-71 -68 -192 -20 -192 75 l0 25 180 0 180 0 0 43 c0 107 -56 207 -135 244 -58
26 -169 31 -220 9z m154 -110 c27 -14 51 -53 51 -81 0 -12 -20 -15 -106 -15
-105 0 -105 0 -99 23 23 76 88 107 154 73z"/>
<path d="M1150 745 l0 -265 70 0 70 0 0 265 0 265 -70 0 -70 0 0 -265z"/>
</g>
</svg>
